<svg width="36" height="36" viewBox="0 0 36 36" fill="none" xmlns="http://www.w3.org/2000/svg">
<path d="M18 0.9375C14.6254 0.9375 11.3265 1.9382 8.52059 3.81305C5.71468 5.6879 3.52773 8.3527 2.23631 11.4705C0.944893 14.5882 0.606998 18.0189 1.26536 21.3287C1.92372 24.6385 3.54876 27.6788 5.935 30.065C8.32123 32.4512 11.3615 34.0763 14.6713 34.7346C17.9811 35.393 21.4118 35.0551 24.5295 33.7637C27.6473 32.4723 30.3121 30.2853 32.187 27.4794C34.0618 24.6735 35.0625 21.3746 35.0625 18C35.0538 13.4774 33.2534 9.14253 30.0554 5.94457C26.8575 2.74661 22.5226 0.946172 18 0.9375V0.9375ZM26.1211 15.0141L16.507 24.2016C16.2585 24.4354 15.9295 24.5646 15.5883 24.5625C15.4215 24.5649 15.2559 24.5342 15.101 24.4723C14.9461 24.4103 14.8051 24.3183 14.6859 24.2016L9.87891 19.6078C9.74558 19.4915 9.63715 19.3494 9.56013 19.1901C9.48312 19.0308 9.4391 18.8576 9.43074 18.6808C9.42238 18.5041 9.44984 18.3275 9.51147 18.1616C9.57311 17.9958 9.66764 17.8441 9.78939 17.7157C9.91114 17.5873 10.0576 17.4848 10.22 17.4145C10.3823 17.3442 10.5572 17.3074 10.7342 17.3063C10.9111 17.3053 11.0864 17.3401 11.2496 17.4085C11.4127 17.477 11.5604 17.5777 11.6836 17.7047L15.5883 21.4289L24.3164 13.1109C24.5716 12.8883 24.903 12.7729 25.2413 12.7889C25.5796 12.8049 25.8986 12.9511 26.1317 13.1968C26.3647 13.4426 26.4937 13.7689 26.4918 14.1076C26.4898 14.4462 26.357 14.771 26.1211 15.0141Z" fill="#00856F"/>
</svg>
